<svg width="32" height="32" viewBox="0 0 32 32" fill="none" xmlns="http://www.w3.org/2000/svg">
<path d="M23.3719 19.1147C22.8628 20.3186 22.0666 21.3794 21.0528 22.2045C20.0391 23.0295 18.8386 23.5937 17.5565 23.8476C16.2743 24.1016 14.9495 24.0376 13.6977 23.6612C12.446 23.2848 11.3056 22.6076 10.3761 21.6886C9.44659 20.7697 8.75635 19.637 8.36571 18.3897C7.97508 17.1424 7.89595 15.8183 8.13523 14.5334C8.37452 13.2484 8.92493 12.0416 9.73836 11.0185C10.5518 9.99536 11.6035 9.18708 12.8014 8.66431" stroke="white" stroke-width="1.5" stroke-linecap="round" stroke-linejoin="round"/>
<path d="M24.0037 16.0018C24.0037 14.951 23.7967 13.9105 23.3946 12.9397C22.9924 11.9688 22.403 11.0867 21.66 10.3437C20.9169 9.60064 20.0348 9.01123 19.064 8.6091C18.0932 8.20697 17.0526 8 16.0018 8V16.0018H24.0037Z" stroke="white" stroke-width="1.5" stroke-linecap="round" stroke-linejoin="round"/>
</svg>
