<svg width="32" height="32" viewBox="0 0 32 32" fill="none" xmlns="http://www.w3.org/2000/svg">
<path d="M19.6667 22V20.6667C19.6667 19.9594 19.3857 19.2811 18.8856 18.781C18.3855 18.281 17.7072 18 17 18H11.6667C10.9594 18 10.2811 18.281 9.78105 18.781C9.28095 19.2811 9 19.9594 9 20.6667V22" stroke="white" stroke-width="1.5" stroke-linecap="round" stroke-linejoin="round"/>
<path d="M14.3327 15.3333C15.8054 15.3333 16.9993 14.1394 16.9993 12.6667C16.9993 11.1939 15.8054 10 14.3327 10C12.8599 10 11.666 11.1939 11.666 12.6667C11.666 14.1394 12.8599 15.3333 14.3327 15.3333Z" stroke="white" stroke-width="1.5" stroke-linecap="round" stroke-linejoin="round"/>
<path d="M23.666 21.9993V20.6659C23.6656 20.0751 23.4689 19.5011 23.1069 19.0341C22.7449 18.5672 22.2381 18.2336 21.666 18.0859" stroke="white" stroke-width="1.5" stroke-linecap="round" stroke-linejoin="round"/>
<path d="M19 10.0859C19.5736 10.2328 20.082 10.5664 20.4451 11.0341C20.8082 11.5019 21.0052 12.0772 21.0052 12.6693C21.0052 13.2614 20.8082 13.8367 20.4451 14.3044C20.082 14.7721 19.5736 15.1057 19 15.2526" stroke="white" stroke-width="1.5" stroke-linecap="round" stroke-linejoin="round"/>
</svg>
