<svg width="142" height="30" viewBox="0 0 142 30" fill="none" xmlns="http://www.w3.org/2000/svg">
<path d="M59.2906 19.9952V12.7464L58.9976 12.6331L55.7433 17.4175L52.4235 12.5218L52.2283 12.5609V20.0059H50.2755V8.82811L52.3103 8.73047C53.4419 10.4489 54.556 12.1342 55.7706 13.9845L59.149 8.82225H61.2863V19.9952H59.2906Z" fill="white"/>
<path d="M125.761 20.2901C122.388 20.2901 119.883 17.8208 119.875 14.4932C119.867 11.1188 122.469 8.54598 125.873 8.56258C129.13 8.57918 131.798 11.2408 131.769 14.4454C131.738 17.7573 129.134 20.2901 125.761 20.2901ZM129.476 14.5294C129.496 12.1919 127.992 10.5622 125.803 10.5476C123.634 10.533 122.086 12.1235 122.072 14.3692C122.055 16.6462 123.552 18.2846 125.673 18.3139C127.989 18.3481 129.456 16.8864 129.476 14.5294Z" fill="white"/>
<path d="M97.7426 20.045H95.3407L91.4907 14.6289C91.5366 14.5176 91.5825 14.4063 91.6294 14.295C92.1459 14.295 92.6624 14.3057 93.1789 14.295C94.5254 14.2598 95.2723 13.6027 95.2655 12.474C95.2587 11.3638 94.5713 10.7487 93.2375 10.7106C92.2933 10.6833 91.3482 10.7047 90.2302 10.7047V20.003H88.1915V8.625C90.5085 8.75681 92.7288 8.7656 94.913 9.04778C96.3464 9.2333 97.2827 10.5212 97.4233 12.0424C97.5571 13.4924 96.9869 14.6445 95.7439 15.4334C95.5057 15.5838 95.2401 15.6932 94.8603 15.8855L97.7426 20.045Z" fill="white"/>
<path d="M80.6465 20.0235H78.4985L77.2848 17.4722H72.1226C71.7079 18.3392 71.3021 19.1854 70.905 20.0108H68.8399C70.5183 16.1804 72.1216 12.5033 73.7405 8.79492H75.7255C77.3385 12.4711 78.9603 16.1736 80.6465 20.0235ZM76.5642 15.5467C75.9296 14.1202 75.371 12.8626 74.8116 11.606L74.5538 11.6528L72.8881 15.5467H76.5642Z" fill="white"/>
<path d="M107.396 18.2553H113.3V20.0128H105.488V8.85352H107.399L107.396 18.2553Z" fill="white"/>
<path d="M9.58756 16.1458C9.32627 13.3348 9.51747 10.7425 9.45577 8.15544L9.66297 7.98633L16.7041 12.0291L9.58756 16.1458Z" fill="#0CABDF"/>
<path d="M18.1776 12.877L25.3102 16.9906L18.1776 21.0935V12.877Z" fill="#0CABDF"/>
<path d="M25.7542 7.90625V16.1457L18.6094 12.0465L25.7542 7.90625Z" fill="#0CABDF"/>
<path d="M17.1294 12.8691V21.0865L10.2681 17.1351L10.2383 16.8761L17.1294 12.8691Z" fill="#0CABDF"/>
<path d="M26.7932 26.0308V17.8516L33.9082 21.9423L26.7932 26.0308Z" fill="#0CABDF"/>
<path d="M26.795 16.1176V7.94141L33.9055 12.0383L26.795 16.1176Z" fill="#0CABDF"/>
<path d="M1.00012 21.1064V12.8792L8.0946 16.9829L1.00012 21.1064Z" fill="#0CABDF"/>
<path d="M1.02545 3L8.10241 7.07401L1.02545 11.1709V3Z" fill="#0CABDF"/>
<path d="M8.51166 7.94141V16.126L1.44537 12.0375L8.51166 7.94141Z" fill="#0CABDF"/>
<path d="M27.2032 16.989L34.2763 12.9043V21.0752L27.2032 16.989Z" fill="#0CABDF"/>
<path d="M1.42194 21.932L8.46309 17.8945V25.9968L1.42194 21.932Z" fill="#0CABDF"/>
<path d="M34.2724 3.0022V11.1578L27.2091 7.07849L34.2724 3.0022Z" fill="#0CABDF"/>
</svg>
