<svg width="20" height="19" viewBox="0 0 20 19" fill="none" xmlns="http://www.w3.org/2000/svg">
<path d="M4.59103 15.4316C4.39406 15.4316 4.23118 15.3672 4.10239 15.2385C3.9736 15.1097 3.90921 14.9468 3.90921 14.7498V8.38619C3.90921 8.20437 3.97739 8.04906 4.11376 7.92028C4.25012 7.79149 4.40921 7.72709 4.59103 7.72709C4.788 7.72709 4.95088 7.79149 5.07966 7.92028C5.20845 8.04906 5.27285 8.21194 5.27285 8.40891V14.7725C5.27285 14.9544 5.20466 15.1097 5.0683 15.2385C4.93194 15.3672 4.77285 15.4316 4.59103 15.4316ZM10.091 15.4316C9.89406 15.4316 9.73118 15.3672 9.60239 15.2385C9.4736 15.1097 9.40921 14.9468 9.40921 14.7498V8.38619C9.40921 8.20437 9.47739 8.04906 9.61376 7.92028C9.75012 7.79149 9.90921 7.72709 10.091 7.72709C10.288 7.72709 10.4509 7.79149 10.5797 7.92028C10.7085 8.04906 10.7728 8.21194 10.7728 8.40891V14.7725C10.7728 14.9544 10.7047 15.1097 10.5683 15.2385C10.4319 15.3672 10.2728 15.4316 10.091 15.4316ZM1.5683 18.1589C1.38648 18.1589 1.23118 18.0907 1.10239 17.9544C0.973604 17.818 0.90921 17.6589 0.90921 17.4771C0.90921 17.2801 0.973604 17.1172 1.10239 16.9885C1.23118 16.8597 1.39406 16.7953 1.59103 16.7953H18.4319C18.6138 16.7953 18.7691 16.8635 18.8978 16.9998C19.0266 17.1362 19.091 17.2953 19.091 17.4771C19.091 17.6741 19.0266 17.8369 18.8978 17.9657C18.7691 18.0945 18.6062 18.1589 18.4092 18.1589H1.5683ZM15.4092 15.4316C15.2122 15.4316 15.0494 15.3672 14.9206 15.2385C14.7918 15.1097 14.7274 14.9468 14.7274 14.7498V8.38619C14.7274 8.20437 14.7956 8.04906 14.9319 7.92028C15.0683 7.79149 15.2274 7.72709 15.4092 7.72709C15.6062 7.72709 15.7691 7.79149 15.8978 7.92028C16.0266 8.04906 16.091 8.21194 16.091 8.40891V14.7725C16.091 14.9544 16.0228 15.1097 15.8865 15.2385C15.7501 15.3672 15.591 15.4316 15.4092 15.4316ZM10.6819 0.363459L18.591 4.86346C18.7425 4.93922 18.8638 5.04906 18.9547 5.193C19.0456 5.33694 19.091 5.49225 19.091 5.65891C19.091 5.87103 19.0077 6.04149 18.841 6.17028C18.6744 6.29906 18.485 6.36346 18.2728 6.36346H1.72739C1.51527 6.36346 1.32588 6.29906 1.15921 6.17028C0.992544 6.04149 0.90921 5.87103 0.90921 5.65891C0.90921 5.49225 0.958453 5.34073 1.05694 5.20437C1.15542 5.068 1.28042 4.95437 1.43194 4.86346L9.3183 0.363459C9.53042 0.242247 9.7577 0.181641 10.0001 0.181641C10.2425 0.181641 10.4698 0.242247 10.6819 0.363459ZM3.95466 4.99982H16.0456H3.95466ZM3.95466 4.99982H16.0456L10.0001 1.54528L3.95466 4.99982Z" fill="url(#paint0_linear_297_480)"/>
<defs>
<linearGradient id="paint0_linear_297_480" x1="10.0001" y1="0.181641" x2="10.0001" y2="18.1589" gradientUnits="userSpaceOnUse">
<stop stop-color="#0082AB"/>
<stop offset="1" stop-color="#006B8D" stop-opacity="0.3"/>
</linearGradient>
</defs>
</svg>
