<svg width="14" height="20" viewBox="0 0 14 20" fill="none" xmlns="http://www.w3.org/2000/svg">
<path d="M2.00017 20C1.62138 20 1.29941 19.8674 1.03426 19.6023C0.769111 19.3371 0.636536 19.0152 0.636536 18.6364V1.36364C0.636536 0.984848 0.769111 0.662879 1.03426 0.397727C1.29941 0.132576 1.62138 0 2.00017 0H12.0002C12.379 0 12.7009 0.132576 12.9661 0.397727C13.2312 0.662879 13.3638 0.984848 13.3638 1.36364V18.6364C13.3638 19.0152 13.2312 19.3371 12.9661 19.6023C12.7009 19.8674 12.379 20 12.0002 20H2.00017ZM2.00017 17.9545V18.6364H12.0002V17.9545H2.00017ZM2.00017 2.04545H12.0002V1.36364H2.00017V2.04545ZM7.00017 14.0909C6.09108 14.0909 5.21229 14.2273 4.36381 14.5C3.51532 14.7727 2.72744 15.1288 2.00017 15.5682V16.5909H12.0002V15.5682C11.2729 15.1288 10.485 14.7727 9.63653 14.5C8.78805 14.2273 7.90926 14.0909 7.00017 14.0909ZM7.00017 12.7273C7.90926 12.7273 8.78426 12.8447 9.62517 13.0795C10.4661 13.3144 11.2577 13.6364 12.0002 14.0455V3.40909H2.00017V14.0455C2.75775 13.6364 3.5532 13.3144 4.38654 13.0795C5.21987 12.8447 6.09108 12.7273 7.00017 12.7273ZM7.0229 11.2955C7.75017 11.2955 8.37138 11.0379 8.88654 10.5227C9.40169 10.0076 9.65926 9.38636 9.65926 8.65909C9.65926 7.93182 9.40169 7.31061 8.88654 6.79545C8.37138 6.2803 7.75017 6.02273 7.0229 6.02273C6.29563 6.02273 5.67441 6.2803 5.15926 6.79545C4.64411 7.31061 4.38654 7.93182 4.38654 8.65909C4.38654 9.38636 4.64411 10.0076 5.15926 10.5227C5.67441 11.0379 6.29563 11.2955 7.0229 11.2955ZM7.0229 9.93182C6.67441 9.93182 6.37517 9.80682 6.12517 9.55682C5.87517 9.30682 5.75017 9.00758 5.75017 8.65909C5.75017 8.31061 5.87517 8.01136 6.12517 7.76136C6.37517 7.51136 6.67441 7.38636 7.0229 7.38636C7.37138 7.38636 7.67063 7.51136 7.92063 7.76136C8.17063 8.01136 8.29563 8.31061 8.29563 8.65909C8.29563 9.00758 8.17063 9.30682 7.92063 9.55682C7.67063 9.80682 7.37138 9.93182 7.0229 9.93182ZM7.00017 16.5909H12.0002H2.00017H7.00017Z" fill="url(#paint0_linear_297_470)"/>
<defs>
<linearGradient id="paint0_linear_297_470" x1="7.00017" y1="0" x2="7.00017" y2="20" gradientUnits="userSpaceOnUse">
<stop stop-color="#FF9F0A"/>
<stop offset="1" stop-color="#FF9F0A" stop-opacity="0.3"/>
</linearGradient>
</defs>
</svg>
