<svg width="19" height="20" viewBox="0 0 19 20" fill="none" xmlns="http://www.w3.org/2000/svg">
<path d="M1.04492 3.97727C0.847947 3.97727 0.685068 3.91288 0.55628 3.78409C0.427492 3.6553 0.363098 3.49242 0.363098 3.29545V0.681818C0.363098 0.484848 0.427492 0.32197 0.55628 0.193182C0.685068 0.0643939 0.847947 0 1.04492 0H3.65855C3.85552 0 4.0184 0.0643939 4.14719 0.193182C4.27598 0.32197 4.34037 0.484848 4.34037 0.681818C4.34037 0.878788 4.27598 1.04167 4.14719 1.17045C4.0184 1.29924 3.85552 1.36364 3.65855 1.36364H1.72673V3.29545C1.72673 3.49242 1.66234 3.6553 1.53355 3.78409C1.40476 3.91288 1.24189 3.97727 1.04492 3.97727ZM17.8631 3.97727C17.6661 3.97727 17.5032 3.91288 17.3745 3.78409C17.2457 3.6553 17.1813 3.49242 17.1813 3.29545V1.36364H15.2495C15.0525 1.36364 14.8896 1.29924 14.7608 1.17045C14.632 1.04167 14.5676 0.878788 14.5676 0.681818C14.5676 0.484848 14.632 0.32197 14.7608 0.193182C14.8896 0.0643939 15.0525 0 15.2495 0H17.8631C18.0601 0 18.2229 0.0643939 18.3517 0.193182C18.4805 0.32197 18.5449 0.484848 18.5449 0.681818V3.29545C18.5449 3.49242 18.4805 3.6553 18.3517 3.78409C18.2229 3.91288 18.0601 3.97727 17.8631 3.97727ZM1.04492 20C0.847947 20 0.685068 19.9356 0.55628 19.8068C0.427492 19.678 0.363098 19.5152 0.363098 19.3182V16.7045C0.363098 16.5076 0.427492 16.3447 0.55628 16.2159C0.685068 16.0871 0.847947 16.0227 1.04492 16.0227C1.24189 16.0227 1.40476 16.0871 1.53355 16.2159C1.66234 16.3447 1.72673 16.5076 1.72673 16.7045V18.6364H3.65855C3.85552 18.6364 4.0184 18.7008 4.14719 18.8295C4.27598 18.9583 4.34037 19.1212 4.34037 19.3182C4.34037 19.5152 4.27598 19.678 4.14719 19.8068C4.0184 19.9356 3.85552 20 3.65855 20H1.04492ZM15.2495 20C15.0525 20 14.8896 19.9356 14.7608 19.8068C14.632 19.678 14.5676 19.5152 14.5676 19.3182C14.5676 19.1212 14.632 18.9583 14.7608 18.8295C14.8896 18.7008 15.0525 18.6364 15.2495 18.6364H17.1813V16.7045C17.1813 16.5076 17.2457 16.3447 17.3745 16.2159C17.5032 16.0871 17.6661 16.0227 17.8631 16.0227C18.0601 16.0227 18.2229 16.0871 18.3517 16.2159C18.4805 16.3447 18.5449 16.5076 18.5449 16.7045V19.3182C18.5449 19.5152 18.4805 19.678 18.3517 19.8068C18.2229 19.9356 18.0601 20 17.8631 20H15.2495ZM4.45401 15.9091H14.454V4.09091H4.45401V15.9091ZM4.45401 17.2727C4.09037 17.2727 3.77219 17.1364 3.49946 16.8636C3.22673 16.5909 3.09037 16.2727 3.09037 15.9091V4.09091C3.09037 3.72727 3.22673 3.40909 3.49946 3.13636C3.77219 2.86364 4.09037 2.72727 4.45401 2.72727H14.454C14.8176 2.72727 15.1358 2.86364 15.4086 3.13636C15.6813 3.40909 15.8176 3.72727 15.8176 4.09091V15.9091C15.8176 16.2727 15.6813 16.5909 15.4086 16.8636C15.1358 17.1364 14.8176 17.2727 14.454 17.2727H4.45401ZM7.63583 7.95455H11.2722C11.4692 7.95455 11.632 7.89015 11.7608 7.76136C11.8896 7.63258 11.954 7.4697 11.954 7.27273C11.954 7.07576 11.8896 6.91288 11.7608 6.78409C11.632 6.6553 11.4692 6.59091 11.2722 6.59091H7.63583C7.43886 6.59091 7.27598 6.6553 7.14719 6.78409C7.0184 6.91288 6.95401 7.07576 6.95401 7.27273C6.95401 7.4697 7.0184 7.63258 7.14719 7.76136C7.27598 7.89015 7.43886 7.95455 7.63583 7.95455ZM7.63583 10.6818H11.2722C11.4692 10.6818 11.632 10.6174 11.7608 10.4886C11.8896 10.3598 11.954 10.197 11.954 10C11.954 9.80303 11.8896 9.64015 11.7608 9.51136C11.632 9.38258 11.4692 9.31818 11.2722 9.31818H7.63583C7.43886 9.31818 7.27598 9.38258 7.14719 9.51136C7.0184 9.64015 6.95401 9.80303 6.95401 10C6.95401 10.197 7.0184 10.3598 7.14719 10.4886C7.27598 10.6174 7.43886 10.6818 7.63583 10.6818ZM7.63583 13.4091H11.2722C11.4692 13.4091 11.632 13.3447 11.7608 13.2159C11.8896 13.0871 11.954 12.9242 11.954 12.7273C11.954 12.5303 11.8896 12.3674 11.7608 12.2386C11.632 12.1098 11.4692 12.0455 11.2722 12.0455H7.63583C7.43886 12.0455 7.27598 12.1098 7.14719 12.2386C7.0184 12.3674 6.95401 12.5303 6.95401 12.7273C6.95401 12.9242 7.0184 13.0871 7.14719 13.2159C7.27598 13.3447 7.43886 13.4091 7.63583 13.4091ZM4.45401 15.9091V4.09091V15.9091Z" fill="url(#paint0_linear_297_460)"/>
<defs>
<linearGradient id="paint0_linear_297_460" x1="9.45401" y1="0" x2="9.45401" y2="20" gradientUnits="userSpaceOnUse">
<stop stop-color="#7340E0"/>
<stop offset="1" stop-color="#7340E0" stop-opacity="0.3"/>
</linearGradient>
</defs>
</svg>
