<svg width="15" height="20" viewBox="0 0 15 20" fill="none" xmlns="http://www.w3.org/2000/svg">
<path d="M6.13585 10.9089L7.45403 9.93166L8.74949 10.9089C8.88585 11.015 9.02221 11.0226 9.15858 10.9317C9.29494 10.8408 9.3404 10.712 9.29494 10.5453L8.79494 8.93166L10.1813 7.86348C10.3025 7.75742 10.3366 7.62863 10.2836 7.47712C10.2305 7.3256 10.1207 7.24984 9.95403 7.24984H8.29494L7.77221 5.56803C7.72676 5.40136 7.62449 5.31803 7.4654 5.31803C7.3063 5.31803 7.19646 5.40136 7.13585 5.56803L6.5904 7.24984H4.95403C4.78737 7.24984 4.67752 7.3256 4.62449 7.47712C4.57146 7.62863 4.60555 7.75742 4.72676 7.86348L6.11312 8.93166L5.61312 10.5453C5.56767 10.712 5.61312 10.8408 5.74949 10.9317C5.88585 11.0226 6.01464 11.015 6.13585 10.9089ZM2.99949 19.7044C2.78737 19.7801 2.58282 19.7498 2.38585 19.6135C2.18888 19.4771 2.0904 19.2877 2.0904 19.0453V13.0908C1.40858 12.3786 0.919941 11.5983 0.624487 10.7498C0.329032 9.90136 0.181305 9.0453 0.181305 8.18166C0.181305 6.12106 0.878275 4.39378 2.27221 2.99984C3.66615 1.60591 5.39343 0.908936 7.45403 0.908936C9.51464 0.908936 11.2419 1.60591 12.6359 2.99984C14.0298 4.39378 14.7268 6.12106 14.7268 8.18166C14.7268 9.0453 14.579 9.90136 14.2836 10.7498C13.9881 11.5983 13.4995 12.3786 12.8177 13.0908V19.0453C12.8177 19.2877 12.7192 19.4771 12.5222 19.6135C12.3252 19.7498 12.1207 19.7801 11.9086 19.7044L7.45403 18.2044L2.99949 19.7044ZM7.45403 14.0908C9.10555 14.0908 10.5033 13.5188 11.6472 12.3748C12.7912 11.2309 13.3631 9.83318 13.3631 8.18166C13.3631 6.53015 12.7912 5.13242 11.6472 3.98848C10.5033 2.84454 9.10555 2.27257 7.45403 2.27257C5.80252 2.27257 4.40479 2.84454 3.26085 3.98848C2.11691 5.13242 1.54494 6.53015 1.54494 8.18166C1.54494 9.83318 2.11691 11.2309 3.26085 12.3748C4.40479 13.5188 5.80252 14.0908 7.45403 14.0908ZM3.45403 18.0908L7.45403 16.8408L11.454 18.0908V14.2044C10.848 14.6438 10.1965 14.962 9.49949 15.1589C8.80252 15.3559 8.1207 15.4544 7.45403 15.4544C6.78737 15.4544 6.10555 15.3559 5.40858 15.1589C4.71161 14.962 4.06009 14.6438 3.45403 14.2044V18.0908Z" fill="url(#paint0_linear_297_490)"/>
<defs>
<linearGradient id="paint0_linear_297_490" x1="7.45403" y1="0.908936" x2="7.45403" y2="19.745" gradientUnits="userSpaceOnUse">
<stop stop-color="#17AC0A"/>
<stop offset="1" stop-color="#17AC0A" stop-opacity="0.3"/>
</linearGradient>
</defs>
</svg>
