<svg width="32" height="32" viewBox="0 0 32 32" fill="none" xmlns="http://www.w3.org/2000/svg">
<g clip-path="url(#clip0_1518_5388)">
<path d="M16 25.8242L16 15.8242" stroke="white" stroke-width="1.5" stroke-linecap="round" stroke-linejoin="round"/>
<path d="M13 7.82422L19 7.82422" stroke="white" stroke-width="1.5" stroke-linecap="round" stroke-linejoin="round"/>
<path d="M13 7.82422L13 10.8242" stroke="white" stroke-width="1.5" stroke-linecap="round" stroke-linejoin="round"/>
<path d="M19 7.82422L19 10.8242" stroke="white" stroke-width="1.5" stroke-linecap="round" stroke-linejoin="round"/>
<path d="M9 11.8242L23 11.8242" stroke="white" stroke-width="1.5" stroke-linecap="round" stroke-linejoin="round"/>
<path d="M9 11.8242L9 15.8242" stroke="white" stroke-width="1.5" stroke-linecap="round" stroke-linejoin="round"/>
<path d="M23 11.8242L23 13.7617L23 15.6992" stroke="white" stroke-width="1.5" stroke-linecap="round" stroke-linejoin="round"/>
<path d="M16 14.8242C14.8284 14.8242 7.17157 16.4492 6 16.4492C6 19.1014 6.62464 21.9489 8.5 23.8242C10.3754 25.6996 13.3478 25.8242 16 25.8242C18.6522 25.8242 21.6246 25.6996 23.5 23.8242C25.3754 21.9489 26 19.1014 26 16.4492C26 16.4492 17.1716 14.8242 16 14.8242Z" stroke="white" stroke-width="1.5" stroke-linecap="round" stroke-linejoin="round"/>
</g>
<defs>
<clipPath id="clip0_1518_5388">
<rect width="32" height="32" fill="white"/>
</clipPath>
</defs>
</svg>
